<?xml version="1.0" encoding="UTF-8"?>
<svg xmlns="http://www.w3.org/2000/svg" width="800" height="800" viewBox="0 0 800 800" role="img" aria-label="Grinder Aluminium Noir">
  <defs>
    <linearGradient id="bg" x1="0" y1="0" x2="1" y2="1">
      <stop offset="0%" stop-color="#1c2321" />
      <stop offset="58%" stop-color="#0d1016" />
      <stop offset="100%" stop-color="#050608" />
    </linearGradient>
    <linearGradient id="liquid" x1="0" y1="0" x2="0" y2="1">
      <stop offset="0%" stop-color="#defcee" />
      <stop offset="100%" stop-color="#7ee4b5" />
    </linearGradient>
    <filter id="blur-xl" x="-30%" y="-30%" width="160%" height="160%">
      <feGaussianBlur stdDeviation="70" />
    </filter>
    <filter id="blur-md" x="-30%" y="-30%" width="160%" height="160%">
      <feGaussianBlur stdDeviation="24" />
    </filter>
    <filter id="shadow" x="-30%" y="-30%" width="160%" height="160%">
      <feDropShadow dx="0" dy="28" stdDeviation="36" flood-color="#000000" flood-opacity="0.42" />
    </filter>
  </defs>
  
  <rect width="800" height="800" fill="#090b10" />
  <rect width="800" height="800" fill="url(#bg)" />
  <ellipse cx="400" cy="180" rx="280" ry="100" fill="#68d8ff" opacity="0.16" filter="url(#blur-xl)" />
  <ellipse cx="400" cy="690" rx="290" ry="70" fill="#000000" opacity="0.68" filter="url(#blur-md)" />
  <rect x="44" y="44" width="712" height="712" rx="44" fill="none" stroke="rgba(255,255,255,0.08)" />

  
      <g filter="url(#shadow)">
        <circle cx="400" cy="440" r="146" fill="#1c2321" />
        <circle cx="400" cy="440" r="112" fill="#7ee4b5" opacity="0.22" />
        <circle cx="486.0" cy="440.0" r="10" fill="#defcee" /><circle cx="477.5" cy="477.3" r="10" fill="#defcee" /><circle cx="453.6" cy="507.2" r="10" fill="#defcee" /><circle cx="419.1" cy="523.8" r="10" fill="#defcee" /><circle cx="380.9" cy="523.8" r="10" fill="#defcee" /><circle cx="346.4" cy="507.2" r="10" fill="#defcee" /><circle cx="322.5" cy="477.3" r="10" fill="#defcee" /><circle cx="314.0" cy="440.0" r="10" fill="#defcee" /><circle cx="322.5" cy="402.7" r="10" fill="#defcee" /><circle cx="346.4" cy="372.8" r="10" fill="#defcee" /><circle cx="380.9" cy="356.2" r="10" fill="#defcee" /><circle cx="419.1" cy="356.2" r="10" fill="#defcee" /><circle cx="453.6" cy="372.8" r="10" fill="#defcee" /><circle cx="477.5" cy="402.7" r="10" fill="#defcee" />
      </g>
    
</svg>
