<?xml version="1.0" encoding="UTF-8"?>
<svg xmlns="http://www.w3.org/2000/svg" width="800" height="800" viewBox="0 0 800 800" role="img" aria-label="Huile Corps Lavande CBD">
  <defs>
    <linearGradient id="bg" x1="0" y1="0" x2="1" y2="1">
      <stop offset="0%" stop-color="#1f2222" />
      <stop offset="58%" stop-color="#0d1016" />
      <stop offset="100%" stop-color="#050608" />
    </linearGradient>
    <linearGradient id="liquid" x1="0" y1="0" x2="0" y2="1">
      <stop offset="0%" stop-color="#e5deff" />
      <stop offset="100%" stop-color="#9c84ff" />
    </linearGradient>
    <filter id="blur-xl" x="-30%" y="-30%" width="160%" height="160%">
      <feGaussianBlur stdDeviation="70" />
    </filter>
    <filter id="blur-md" x="-30%" y="-30%" width="160%" height="160%">
      <feGaussianBlur stdDeviation="24" />
    </filter>
    <filter id="shadow" x="-30%" y="-30%" width="160%" height="160%">
      <feDropShadow dx="0" dy="28" stdDeviation="36" flood-color="#000000" flood-opacity="0.42" />
    </filter>
  </defs>
  
  <rect width="800" height="800" fill="#090b10" />
  <rect width="800" height="800" fill="url(#bg)" />
  <ellipse cx="400" cy="180" rx="280" ry="100" fill="#bfa4ff" opacity="0.16" filter="url(#blur-xl)" />
  <ellipse cx="400" cy="690" rx="290" ry="70" fill="#000000" opacity="0.68" filter="url(#blur-md)" />
  <rect x="44" y="44" width="712" height="712" rx="44" fill="none" stroke="rgba(255,255,255,0.08)" />

  
    <g filter="url(#shadow)">
      <rect x="300" y="250" width="200" height="344" rx="42" fill="#334070" />
      <rect x="320" y="280" width="160" height="264" rx="28" fill="url(#liquid)" opacity="0.9" />
      <rect x="356" y="188" width="88" height="74" rx="16" fill="#b49355" />
             <rect x="420" y="176" width="84" height="18" rx="9" fill="#dcb975" />
             <rect x="410" y="194" width="18" height="42" rx="9" fill="#dcb975" />
      <rect x="334" y="392" width="132" height="86" rx="20" fill="#ffffff" opacity="0.08" />
      <ellipse cx="386" cy="330" rx="90" ry="40" fill="#ffffff" opacity="0.08" />
    </g>
  
</svg>
