<?xml version="1.0" encoding="UTF-8"?>
<svg xmlns="http://www.w3.org/2000/svg" width="800" height="800" viewBox="0 0 800 800" role="img" aria-label="Hash Blond Premium CBD">
  <defs>
    <linearGradient id="bg" x1="0" y1="0" x2="1" y2="1">
      <stop offset="0%" stop-color="#2f2018" />
      <stop offset="58%" stop-color="#0d1016" />
      <stop offset="100%" stop-color="#050608" />
    </linearGradient>
    <linearGradient id="liquid" x1="0" y1="0" x2="0" y2="1">
      <stop offset="0%" stop-color="#f3c36e" />
      <stop offset="100%" stop-color="#cc8e45" />
    </linearGradient>
    <filter id="blur-xl" x="-30%" y="-30%" width="160%" height="160%">
      <feGaussianBlur stdDeviation="70" />
    </filter>
    <filter id="blur-md" x="-30%" y="-30%" width="160%" height="160%">
      <feGaussianBlur stdDeviation="24" />
    </filter>
    <filter id="shadow" x="-30%" y="-30%" width="160%" height="160%">
      <feDropShadow dx="0" dy="28" stdDeviation="36" flood-color="#000000" flood-opacity="0.42" />
    </filter>
  </defs>
  
  <rect width="800" height="800" fill="#090b10" />
  <rect width="800" height="800" fill="url(#bg)" />
  <ellipse cx="400" cy="180" rx="280" ry="100" fill="#ffca78" opacity="0.16" filter="url(#blur-xl)" />
  <ellipse cx="400" cy="690" rx="290" ry="70" fill="#000000" opacity="0.68" filter="url(#blur-md)" />
  <rect x="44" y="44" width="712" height="712" rx="44" fill="none" stroke="rgba(255,255,255,0.08)" />

  
    <g filter="url(#shadow)">
      <path d="M248 522 L302 360 L542 384 L508 560 L292 596 Z" fill="#2f2018" />
      <path d="M302 360 L360 326 L570 352 L542 384 Z" fill="#cc8e45" opacity="0.92" />
      <path d="M542 384 L570 352 L538 532 L508 560 Z" fill="#f3c36e" opacity="0.5" />
      <path d="M286 538 C360 516 444 516 520 534" stroke="#ffffff" stroke-opacity="0.14" stroke-width="6" stroke-linecap="round" />
    </g>
  
</svg>
