<?xml version="1.0" encoding="UTF-8"?>
<svg xmlns="http://www.w3.org/2000/svg" width="800" height="800" viewBox="0 0 800 800" role="img" aria-label="Pollen CBD Classic">
  <defs>
    <linearGradient id="bg" x1="0" y1="0" x2="1" y2="1">
      <stop offset="0%" stop-color="#2f2018" />
      <stop offset="58%" stop-color="#0d1016" />
      <stop offset="100%" stop-color="#050608" />
    </linearGradient>
    <linearGradient id="liquid" x1="0" y1="0" x2="0" y2="1">
      <stop offset="0%" stop-color="#f3c36e" />
      <stop offset="100%" stop-color="#cc8e45" />
    </linearGradient>
    <filter id="blur-xl" x="-30%" y="-30%" width="160%" height="160%">
      <feGaussianBlur stdDeviation="70" />
    </filter>
    <filter id="blur-md" x="-30%" y="-30%" width="160%" height="160%">
      <feGaussianBlur stdDeviation="24" />
    </filter>
    <filter id="shadow" x="-30%" y="-30%" width="160%" height="160%">
      <feDropShadow dx="0" dy="28" stdDeviation="36" flood-color="#000000" flood-opacity="0.42" />
    </filter>
  </defs>
  
  <rect width="800" height="800" fill="#090b10" />
  <rect width="800" height="800" fill="url(#bg)" />
  <ellipse cx="400" cy="180" rx="280" ry="100" fill="#ffca78" opacity="0.16" filter="url(#blur-xl)" />
  <ellipse cx="400" cy="690" rx="290" ry="70" fill="#000000" opacity="0.68" filter="url(#blur-md)" />
  <rect x="44" y="44" width="712" height="712" rx="44" fill="none" stroke="rgba(255,255,255,0.08)" />

  
      <g filter="url(#shadow)">
        <path d="M245 560 C300 500 500 500 555 560 C495 610 305 618 245 560Z" fill="#cc8e45" />
        <path d="M290 540 C346 498 458 496 508 540 C454 572 344 578 290 540Z" fill="#f3c36e" opacity="0.78" />
        <circle cx="265" cy="520" r="3" fill="#fff5d4" opacity="0.55" /><circle cx="313" cy="520" r="4" fill="#fff5d4" opacity="0.55" /><circle cx="361" cy="520" r="5" fill="#fff5d4" opacity="0.55" /><circle cx="409" cy="520" r="3" fill="#fff5d4" opacity="0.55" /><circle cx="457" cy="520" r="4" fill="#fff5d4" opacity="0.55" /><circle cx="505" cy="520" r="5" fill="#fff5d4" opacity="0.55" /><circle cx="265" cy="540" r="3" fill="#fff5d4" opacity="0.55" /><circle cx="313" cy="540" r="4" fill="#fff5d4" opacity="0.55" /><circle cx="361" cy="540" r="5" fill="#fff5d4" opacity="0.55" /><circle cx="409" cy="540" r="3" fill="#fff5d4" opacity="0.55" /><circle cx="457" cy="540" r="4" fill="#fff5d4" opacity="0.55" /><circle cx="505" cy="540" r="5" fill="#fff5d4" opacity="0.55" /><circle cx="265" cy="560" r="3" fill="#fff5d4" opacity="0.55" /><circle cx="313" cy="560" r="4" fill="#fff5d4" opacity="0.55" /><circle cx="361" cy="560" r="5" fill="#fff5d4" opacity="0.55" /><circle cx="409" cy="560" r="3" fill="#fff5d4" opacity="0.55" /><circle cx="457" cy="560" r="4" fill="#fff5d4" opacity="0.55" /><circle cx="505" cy="560" r="5" fill="#fff5d4" opacity="0.55" />
      </g>
    
</svg>
